# xmcd
# Track frame offsets:
# 150
# 17865
# 33292
# 45592
# 60362
# 71082
# 88340
# 101902
# 114302
# 130300
# 148710
# 159870
# 173307
#
# Disc length: 2473 seconds
# Revision: 0
# Processed by: cddbd v1.4PL0 Copyright (c) Steve Scherf et al.
# Submitted via: VisiTrax 2.9.5.180 - For more info visit www.synapsa.com
#
DISCID=a709a70d
DTITLE=Gerry Morgan - Gerry Morgan and Friends
DYEAR=1900
DGENRE=
TTITLE0=Gerry Morgan/Philomena Begley - Nothing left to say
TTITLE1=Donna Warde - Moth to a flame
TTITLE2=Gerry Morgan/Chris Logue - Nobody knows it's over
TTITLE3=Gerry Morgan/June Cunningham - Walking thru my mind
TTITLE4=Leon - A hundred honeymoons
TTITLE5=Gerry Morgan/Margo - An old wedding waltz
TTITLE6=Leon - Next time round
TTITLE7=Gerry Morgan - Rocking in her wranglers
TTITLE8=Gerry Morgan - She is my treasure
TTITLE9=Gerry Morgan/Leon - When I'm over you
TTITLE10=Gerry Morgan - Home to Achill island
TTITLE11=Gerry Morgan/Leon - Leave your name and number
TTITLE12=Leon - Wounded heart
EXTD=
EXTT0=
EXTT1=
EXTT2=
EXTT3=
EXTT4=
EXTT5=
EXTT6=
EXTT7=
EXTT8=
EXTT9=
EXTT10=
EXTT11=
EXTT12=
PLAYORDER=
